<?xml version="1.0" encoding="utf-8" standalone="no"?>
<!DOCTYPE svg PUBLIC "-//W3C//DTD SVG 1.1//EN"
  "http://www.w3.org/Graphics/SVG/1.1/DTD/svg11.dtd">
<svg xmlns:xlink="http://www.w3.org/1999/xlink" width="360pt" height="360pt" viewBox="0 0 360 360" xmlns="http://www.w3.org/2000/svg" version="1.1">
 <metadata>
  <rdf:RDF xmlns:dc="http://purl.org/dc/elements/1.1/" xmlns:cc="http://creativecommons.org/ns#" xmlns:rdf="http://www.w3.org/1999/02/22-rdf-syntax-ns#">
   <cc:Work>
    <dc:type rdf:resource="http://purl.org/dc/dcmitype/StillImage"/>
    <dc:date>2023-09-21T15:17:33.974897</dc:date>
    <dc:format>image/svg+xml</dc:format>
    <dc:creator>
     <cc:Agent>
      <dc:title>Matplotlib v3.7.1, https://matplotlib.org/</dc:title>
     </cc:Agent>
    </dc:creator>
   </cc:Work>
  </rdf:RDF>
 </metadata>
 <defs>
  <style type="text/css">*{stroke-linejoin: round; stroke-linecap: butt}</style>
 </defs>
 <g id="figure_1">
  <g id="patch_1">
   <path d="M 0 360 
L 360 360 
L 360 0 
L 0 0 
z
" style="fill: #ffffff"/>
  </g>
  <g id="axes_1">
   <g id="patch_2">
    <path d="M 45 320.4 
L 324 320.4 
L 324 43.2 
L 45 43.2 
z
" style="fill: #ffffff"/>
   </g>
   <g id="matplotlib.axis_1">
    <g id="xtick_1">
     <g id="line2d_1">
      <defs>
       <path id="ma4191a263f" d="M 0 0 
L 0 12 
" style="stroke: #262626; stroke-width: 2.5"/>
      </defs>
      <g>
       <use xlink:href="#ma4191a263f" x="57.681818" y="320.4" style="fill: #262626; stroke: #262626; stroke-width: 2.5"/>
      </g>
     </g>
     <g id="text_1">
      <text style="fill: #262626; font: 22px 'Arial', 'DejaVu Sans', 'Liberation Sans', 'Bitstream Vera Sans', sans-serif; text-anchor: middle" x="57.681818" y="352.616562" transform="rotate(-0 57.681818 352.616562)">0</text>
     </g>
    </g>
    <g id="xtick_2">
     <g id="line2d_2">
      <g>
       <use xlink:href="#ma4191a263f" x="184.5" y="320.4" style="fill: #262626; stroke: #262626; stroke-width: 2.5"/>
      </g>
     </g>
     <g id="text_2">
      <text style="fill: #262626; font: 22px 'Arial', 'DejaVu Sans', 'Liberation Sans', 'Bitstream Vera Sans', sans-serif; text-anchor: middle" x="184.5" y="352.616562" transform="rotate(-0 184.5 352.616562)">50</text>
     </g>
    </g>
    <g id="xtick_3">
     <g id="line2d_3">
      <g>
       <use xlink:href="#ma4191a263f" x="311.318182" y="320.4" style="fill: #262626; stroke: #262626; stroke-width: 2.5"/>
      </g>
     </g>
     <g id="text_3">
      <text style="fill: #262626; font: 22px 'Arial', 'DejaVu Sans', 'Liberation Sans', 'Bitstream Vera Sans', sans-serif; text-anchor: middle" x="311.318182" y="352.616562" transform="rotate(-0 311.318182 352.616562)">100</text>
     </g>
    </g>
    <g id="text_4">
     <text style="fill: #262626; font: 24px 'Arial', 'DejaVu Sans', 'Liberation Sans', 'Bitstream Vera Sans', sans-serif; text-anchor: middle" x="184.5" y="379.428125" transform="rotate(-0 184.5 379.428125)">Pure Tone Average (dB)</text>
    </g>
   </g>
   <g id="matplotlib.axis_2">
    <g id="ytick_1">
     <g id="line2d_4">
      <defs>
       <path id="mf2654cb876" d="M 0 0 
L -12 0 
" style="stroke: #262626; stroke-width: 2.5"/>
      </defs>
      <g>
       <use xlink:href="#mf2654cb876" x="45" y="320.4" style="fill: #262626; stroke: #262626; stroke-width: 2.5"/>
      </g>
     </g>
     <g id="text_5">
      <text style="fill: #262626; font: 22px 'Arial', 'DejaVu Sans', 'Liberation Sans', 'Bitstream Vera Sans', sans-serif; text-anchor: end" x="29.5" y="328.758281" transform="rotate(-0 29.5 328.758281)">0.0</text>
     </g>
    </g>
    <g id="ytick_2">
     <g id="line2d_5">
      <g>
       <use xlink:href="#mf2654cb876" x="45" y="264.96" style="fill: #262626; stroke: #262626; stroke-width: 2.5"/>
      </g>
     </g>
     <g id="text_6">
      <text style="fill: #262626; font: 22px 'Arial', 'DejaVu Sans', 'Liberation Sans', 'Bitstream Vera Sans', sans-serif; text-anchor: end" x="29.5" y="273.318281" transform="rotate(-0 29.5 273.318281)">0.2</text>
     </g>
    </g>
    <g id="ytick_3">
     <g id="line2d_6">
      <g>
       <use xlink:href="#mf2654cb876" x="45" y="209.52" style="fill: #262626; stroke: #262626; stroke-width: 2.5"/>
      </g>
     </g>
     <g id="text_7">
      <text style="fill: #262626; font: 22px 'Arial', 'DejaVu Sans', 'Liberation Sans', 'Bitstream Vera Sans', sans-serif; text-anchor: end" x="29.5" y="217.878281" transform="rotate(-0 29.5 217.878281)">0.4</text>
     </g>
    </g>
    <g id="ytick_4">
     <g id="line2d_7">
      <g>
       <use xlink:href="#mf2654cb876" x="45" y="154.08" style="fill: #262626; stroke: #262626; stroke-width: 2.5"/>
      </g>
     </g>
     <g id="text_8">
      <text style="fill: #262626; font: 22px 'Arial', 'DejaVu Sans', 'Liberation Sans', 'Bitstream Vera Sans', sans-serif; text-anchor: end" x="29.5" y="162.438281" transform="rotate(-0 29.5 162.438281)">0.6</text>
     </g>
    </g>
    <g id="ytick_5">
     <g id="line2d_8">
      <g>
       <use xlink:href="#mf2654cb876" x="45" y="98.64" style="fill: #262626; stroke: #262626; stroke-width: 2.5"/>
      </g>
     </g>
     <g id="text_9">
      <text style="fill: #262626; font: 22px 'Arial', 'DejaVu Sans', 'Liberation Sans', 'Bitstream Vera Sans', sans-serif; text-anchor: end" x="29.5" y="106.998281" transform="rotate(-0 29.5 106.998281)">0.8</text>
     </g>
    </g>
    <g id="ytick_6">
     <g id="line2d_9">
      <g>
       <use xlink:href="#mf2654cb876" x="45" y="43.2" style="fill: #262626; stroke: #262626; stroke-width: 2.5"/>
      </g>
     </g>
     <g id="text_10">
      <text style="fill: #262626; font: 22px 'Arial', 'DejaVu Sans', 'Liberation Sans', 'Bitstream Vera Sans', sans-serif; text-anchor: end" x="29.5" y="51.558281" transform="rotate(-0 29.5 51.558281)">1.0</text>
     </g>
    </g>
    <g id="text_11">
     <text style="fill: #262626; font: 24px 'Arial', 'DejaVu Sans', 'Liberation Sans', 'Bitstream Vera Sans', sans-serif; text-anchor: middle" x="-14.478125" y="181.8" transform="rotate(-90 -14.478125 181.8)">Probability  (Hearing Aid)</text>
    </g>
   </g>
   <g id="PolyCollection_1">
    <defs>
     <path id="m2ad00b231e" d="M 58.319095 -41.13797 
L 58.319095 -40.127838 
L 58.956373 -40.127624 
L 60.230927 -40.129864 
L 61.505482 -40.134557 
L 62.780037 -40.141704 
L 64.054591 -40.151305 
L 65.329146 -40.163359 
L 66.6037 -40.177868 
L 67.878255 -40.194829 
L 69.15281 -40.214245 
L 70.427364 -40.236114 
L 71.701919 -40.260437 
L 72.976473 -40.287214 
L 74.251028 -40.316444 
L 75.525582 -40.348128 
L 76.800137 -40.382266 
L 78.074692 -40.418857 
L 79.349246 -40.457902 
L 80.623801 -40.499401 
L 81.898355 -40.543354 
L 83.17291 -40.58976 
L 84.447465 -40.63862 
L 85.722019 -40.689933 
L 86.996574 -40.743701 
L 88.271128 -40.799922 
L 89.545683 -40.858596 
L 90.820238 -40.919725 
L 92.094792 -40.983307 
L 93.369347 -41.043082 
L 94.643901 -41.105528 
L 95.918456 -41.170752 
L 97.193011 -41.237416 
L 98.467565 -41.306875 
L 99.74212 -41.375439 
L 101.016674 -41.447897 
L 102.291229 -41.524229 
L 103.565783 -41.603685 
L 104.840338 -41.686545 
L 106.114893 -41.773909 
L 107.389447 -41.865555 
L 108.664002 -41.964207 
L 109.938556 -42.065728 
L 111.213111 -42.169064 
L 112.487666 -42.274371 
L 113.76222 -42.385702 
L 115.036775 -42.501987 
L 116.311329 -42.622467 
L 117.585884 -42.750443 
L 118.860439 -42.883098 
L 120.134993 -43.020078 
L 121.409548 -43.162336 
L 122.684102 -43.307641 
L 123.958657 -43.455407 
L 125.233212 -43.608478 
L 126.507766 -43.765804 
L 127.782321 -43.926439 
L 129.056875 -44.097003 
L 130.33143 -44.273715 
L 131.605984 -44.45428 
L 132.880539 -44.645235 
L 134.155094 -44.842986 
L 135.429648 -45.042941 
L 136.704203 -45.249553 
L 137.978757 -45.472182 
L 139.253312 -45.702508 
L 140.527867 -45.929847 
L 141.802421 -46.166773 
L 143.076976 -46.414774 
L 144.35153 -46.686145 
L 145.626085 -46.967849 
L 146.90064 -47.254548 
L 148.175194 -47.549273 
L 149.449749 -47.852076 
L 150.724303 -48.161648 
L 151.998858 -48.475363 
L 153.273413 -48.801268 
L 154.547967 -49.138021 
L 155.822522 -49.493069 
L 157.097076 -49.856493 
L 158.371631 -50.23076 
L 159.646185 -50.613193 
L 160.92074 -51.010561 
L 162.195295 -51.426662 
L 163.469849 -51.852634 
L 164.744404 -52.291743 
L 166.018958 -52.741882 
L 167.293513 -53.211409 
L 168.568068 -53.692453 
L 169.842622 -54.182927 
L 171.117177 -54.68544 
L 172.391731 -55.199236 
L 173.666286 -55.72616 
L 174.940841 -56.267848 
L 176.215395 -56.818086 
L 177.48995 -57.381038 
L 178.764504 -57.946476 
L 180.039059 -58.52449 
L 181.313614 -59.13915 
L 182.588168 -59.775101 
L 183.862723 -60.423794 
L 185.137277 -61.091074 
L 186.411832 -61.778113 
L 187.686386 -62.483163 
L 188.960941 -63.208584 
L 190.235496 -63.955951 
L 191.51005 -64.721139 
L 192.784605 -65.515231 
L 194.059159 -66.33129 
L 195.333714 -67.16991 
L 196.608269 -68.030633 
L 197.882823 -68.920911 
L 199.157378 -69.845743 
L 200.431932 -70.794524 
L 201.706487 -71.778674 
L 202.981042 -72.779699 
L 204.255596 -73.797018 
L 205.530151 -74.836979 
L 206.804705 -75.889979 
L 208.07926 -76.958541 
L 209.353815 -78.052903 
L 210.628369 -79.179528 
L 211.902924 -80.327378 
L 213.177478 -81.495011 
L 214.452033 -82.672644 
L 215.726587 -83.871056 
L 217.001142 -85.096094 
L 218.275697 -86.342076 
L 219.550251 -87.613582 
L 220.824806 -88.912696 
L 222.09936 -90.218696 
L 223.373915 -91.55026 
L 224.64847 -92.9117 
L 225.923024 -94.293855 
L 227.197579 -95.682725 
L 228.472133 -97.103279 
L 229.746688 -98.567146 
L 231.021243 -100.055329 
L 232.295797 -101.576944 
L 233.570352 -103.126867 
L 234.844906 -104.706577 
L 236.119461 -106.338726 
L 237.394016 -107.979997 
L 238.66857 -109.642643 
L 239.943125 -111.332453 
L 241.217679 -112.987636 
L 242.492234 -114.67459 
L 243.766788 -116.395889 
L 245.041343 -118.149324 
L 246.315898 -119.940753 
L 247.590452 -121.767549 
L 248.865007 -123.638734 
L 250.139561 -125.52604 
L 251.414116 -127.429445 
L 252.688671 -129.364695 
L 253.963225 -131.333804 
L 255.23778 -133.342589 
L 256.512334 -135.373139 
L 257.786889 -137.434565 
L 259.061444 -139.527503 
L 260.335998 -141.649418 
L 261.610553 -143.80952 
L 262.885107 -145.987382 
L 264.159662 -148.18139 
L 265.434217 -150.416209 
L 266.708771 -152.662857 
L 267.983326 -154.927688 
L 269.25788 -157.194643 
L 270.532435 -159.472751 
L 271.806989 -161.74975 
L 273.081544 -164.034276 
L 274.356099 -166.327015 
L 275.630653 -168.626439 
L 276.905208 -170.939913 
L 278.179762 -173.139534 
L 279.454317 -175.341643 
L 280.728872 -177.54624 
L 282.003426 -179.753324 
L 283.277981 -181.962896 
L 284.552535 -184.174956 
L 285.82709 -186.389503 
L 287.101645 -188.606538 
L 288.376199 -190.82606 
L 289.650754 -193.048071 
L 290.925308 -195.272569 
L 292.199863 -197.499554 
L 293.474418 -199.729028 
L 294.748972 -201.960989 
L 296.023527 -204.195437 
L 297.298081 -206.432374 
L 298.572636 -208.671798 
L 299.84719 -210.91371 
L 301.121745 -213.158109 
L 302.3963 -215.404996 
L 303.670854 -217.654371 
L 304.945409 -219.906234 
L 306.219963 -222.160584 
L 307.494518 -224.417422 
L 308.769073 -226.676747 
L 310.043627 -228.938561 
L 311.318182 -231.202862 
L 311.318182 -292.818405 
L 311.318182 -292.818405 
L 310.043627 -291.773447 
L 308.769073 -290.684817 
L 307.494518 -289.552513 
L 306.219963 -288.376535 
L 304.945409 -287.156885 
L 303.670854 -285.893561 
L 302.3963 -284.586564 
L 301.121745 -283.235894 
L 299.84719 -281.84155 
L 298.572636 -280.403533 
L 297.298081 -278.921843 
L 296.023527 -277.39648 
L 294.748972 -275.827443 
L 293.474418 -274.214733 
L 292.199863 -272.55835 
L 290.925308 -270.858294 
L 289.650754 -269.114564 
L 288.376199 -267.327161 
L 287.101645 -265.496084 
L 285.82709 -263.621335 
L 284.552535 -261.702912 
L 283.277981 -259.740816 
L 282.003426 -257.735047 
L 280.728872 -255.685604 
L 279.454317 -253.592488 
L 278.179762 -251.455699 
L 276.905208 -249.275236 
L 275.630653 -246.957174 
L 274.356099 -244.599941 
L 273.081544 -242.193747 
L 271.806989 -239.743788 
L 270.532435 -237.248307 
L 269.25788 -234.699883 
L 267.983326 -232.112461 
L 266.708771 -229.476819 
L 265.434217 -226.811537 
L 264.159662 -224.11095 
L 262.885107 -221.400523 
L 261.610553 -218.656797 
L 260.335998 -215.885479 
L 259.061444 -213.104725 
L 257.786889 -210.308027 
L 256.512334 -207.497596 
L 255.23778 -204.682685 
L 253.963225 -201.85028 
L 252.688671 -199.014045 
L 251.414116 -196.174554 
L 250.139561 -193.333394 
L 248.865007 -190.480567 
L 247.590452 -187.61325 
L 246.315898 -184.762163 
L 245.041343 -181.922673 
L 243.766788 -179.095578 
L 242.492234 -176.277679 
L 241.217679 -173.472684 
L 239.943125 -170.684432 
L 238.66857 -167.844102 
L 237.394016 -165.01909 
L 236.119461 -162.206129 
L 234.844906 -159.392744 
L 233.570352 -156.623078 
L 232.295797 -153.877551 
L 231.021243 -151.157137 
L 229.746688 -148.467835 
L 228.472133 -145.80446 
L 227.197579 -143.185019 
L 225.923024 -140.602357 
L 224.64847 -138.032079 
L 223.373915 -135.489214 
L 222.09936 -132.983936 
L 220.824806 -130.515966 
L 219.550251 -128.064633 
L 218.275697 -125.651621 
L 217.001142 -123.277802 
L 215.726587 -120.937051 
L 214.452033 -118.638637 
L 213.177478 -116.377751 
L 211.902924 -114.144469 
L 210.628369 -111.948068 
L 209.353815 -109.794835 
L 208.07926 -107.695224 
L 206.804705 -105.645635 
L 205.530151 -103.634498 
L 204.255596 -101.658371 
L 202.981042 -99.729707 
L 201.706487 -97.8399 
L 200.431932 -95.990178 
L 199.157378 -94.199521 
L 197.882823 -92.455894 
L 196.608269 -90.770077 
L 195.333714 -89.1357 
L 194.059159 -87.545268 
L 192.784605 -86.002455 
L 191.51005 -84.504516 
L 190.235496 -83.057971 
L 188.960941 -81.652445 
L 187.686386 -80.289765 
L 186.411832 -78.969295 
L 185.137277 -77.683946 
L 183.862723 -76.438644 
L 182.588168 -75.23479 
L 181.313614 -74.064301 
L 180.039059 -72.935412 
L 178.764504 -71.861952 
L 177.48995 -70.820744 
L 176.215395 -69.799944 
L 174.940841 -68.806368 
L 173.666286 -67.838698 
L 172.391731 -66.902072 
L 171.117177 -65.995257 
L 169.842622 -65.115098 
L 168.568068 -64.262761 
L 167.293513 -63.43391 
L 166.018958 -62.629521 
L 164.744404 -61.858386 
L 163.469849 -61.110169 
L 162.195295 -60.385524 
L 160.92074 -59.681634 
L 159.646185 -59.00922 
L 158.371631 -58.361189 
L 157.097076 -57.729067 
L 155.822522 -57.118385 
L 154.547967 -56.525744 
L 153.273413 -55.959346 
L 151.998858 -55.411621 
L 150.724303 -54.884713 
L 149.449749 -54.370579 
L 148.175194 -53.871942 
L 146.90064 -53.388745 
L 145.626085 -52.92037 
L 144.35153 -52.463494 
L 143.076976 -52.023708 
L 141.802421 -51.613375 
L 140.527867 -51.219217 
L 139.253312 -50.84066 
L 137.978757 -50.464513 
L 136.704203 -50.101945 
L 135.429648 -49.76004 
L 134.155094 -49.429864 
L 132.880539 -49.106407 
L 131.605984 -48.794484 
L 130.33143 -48.497212 
L 129.056875 -48.207872 
L 127.782321 -47.928579 
L 126.507766 -47.663243 
L 125.233212 -47.404795 
L 123.958657 -47.154229 
L 122.684102 -46.912069 
L 121.409548 -46.67583 
L 120.134993 -46.445047 
L 118.860439 -46.221887 
L 117.585884 -46.005491 
L 116.311329 -45.795981 
L 115.036775 -45.596411 
L 113.76222 -45.402796 
L 112.487666 -45.216827 
L 111.213111 -45.038794 
L 109.938556 -44.86513 
L 108.664002 -44.694733 
L 107.389447 -44.528852 
L 106.114893 -44.37137 
L 104.840338 -44.219433 
L 103.565783 -44.073321 
L 102.291229 -43.932068 
L 101.016674 -43.795229 
L 99.74212 -43.663761 
L 98.467565 -43.538091 
L 97.193011 -43.412593 
L 95.918456 -43.291373 
L 94.643901 -43.172836 
L 93.369347 -43.05805 
L 92.094792 -42.947241 
L 90.820238 -42.831315 
L 89.545683 -42.719152 
L 88.271128 -42.610752 
L 86.996574 -42.506114 
L 85.722019 -42.405239 
L 84.447465 -42.308127 
L 83.17291 -42.214778 
L 81.898355 -42.125191 
L 80.623801 -42.039367 
L 79.349246 -41.957306 
L 78.074692 -41.879008 
L 76.800137 -41.804472 
L 75.525582 -41.733699 
L 74.251028 -41.666689 
L 72.976473 -41.603442 
L 71.701919 -41.543958 
L 70.427364 -41.488236 
L 69.15281 -41.436277 
L 67.878255 -41.388081 
L 66.6037 -41.343647 
L 65.329146 -41.302977 
L 64.054591 -41.266069 
L 62.780037 -41.232923 
L 61.505482 -41.203541 
L 60.230927 -41.177921 
L 58.956373 -41.156064 
L 58.319095 -41.13797 
z
" style="stroke: #1f77b4; stroke-opacity: 0.5; stroke-width: 2"/>
    </defs>
    <g clip-path="url(#p6a96acdf6f)">
     <use xlink:href="#m2ad00b231e" x="0" y="360" style="fill: #1f77b4; fill-opacity: 0.5; stroke: #1f77b4; stroke-opacity: 0.5; stroke-width: 2"/>
    </g>
   </g>
   <g id="line2d_10">
    <path d="M 311.318182 96.996693 
L 307.255938 101.970862 
L 302.939803 107.623039 
L 298.623669 113.652806 
L 294.053645 120.441753 
L 289.48362 127.631732 
L 284.659705 135.629807 
L 279.32801 144.911572 
L 273.488534 155.53035 
L 266.379607 168.938215 
L 252.923423 194.932596 
L 244.037265 211.815552 
L 237.690008 223.402638 
L 232.358313 232.69807 
L 227.280508 241.10421 
L 222.710483 248.253832 
L 218.394349 254.619082 
L 214.078215 260.593289 
L 210.015971 265.852301 
L 205.953726 270.757853 
L 201.891482 275.313936 
L 197.829238 279.528477 
L 193.766994 283.412636 
L 189.70475 286.980119 
L 185.642506 290.246529 
L 181.580262 293.228776 
L 177.518018 295.944553 
L 173.201884 298.558266 
L 168.885749 300.913098 
L 164.315725 303.147771 
L 159.7457 305.140108 
L 154.921785 307.005597 
L 149.84398 308.73303 
L 144.512285 310.31536 
L 138.672809 311.809724 
L 132.579443 313.138473 
L 125.978296 314.350835 
L 118.615479 315.468771 
L 110.490991 316.466198 
L 101.604832 317.328882 
L 91.449222 318.086302 
L 79.77027 318.729531 
L 65.806306 319.268138 
L 57.681818 319.497305 
L 57.681818 319.497305 
" clip-path="url(#p6a96acdf6f)" style="fill: none; stroke: #1f77b4; stroke-width: 2; stroke-linecap: round"/>
   </g>
   <g id="line2d_11">
    <path d="M 58.319095 319.872162 
L 69.15281 319.785755 
L 81.898355 319.456646 
L 94.643901 318.894472 
L 107.389447 318.134445 
L 117.585884 317.249557 
L 126.507766 316.234196 
L 132.880539 315.354765 
L 140.527867 314.070153 
L 145.626085 313.032151 
L 153.273413 311.198732 
L 158.371631 309.76924 
L 163.469849 308.147366 
L 168.568068 306.307547 
L 173.666286 304.27384 
L 180.039059 301.47551 
L 185.137277 298.908926 
L 190.235496 296.044049 
L 194.059159 293.66871 
L 197.882823 291.079089 
L 201.706487 288.221326 
L 206.804705 284.110021 
L 210.628369 280.820472 
L 215.726587 276.128944 
L 220.824806 271.087304 
L 225.923024 265.706145 
L 229.746688 261.432854 
L 233.570352 256.873133 
L 237.394016 252.020003 
L 243.766788 243.604111 
L 247.590452 238.232451 
L 252.688671 230.635305 
L 257.786889 222.565435 
L 262.885107 214.012618 
L 267.983326 205.072312 
L 284.552535 175.825044 
L 301.121745 146.841891 
L 311.318182 128.797138 
L 311.318182 128.797138 
" clip-path="url(#p6a96acdf6f)" style="fill: none; stroke: #1f77b4; stroke-opacity: 0; stroke-width: 3; stroke-linecap: round"/>
   </g>
   <g id="line2d_12">
    <path d="M 58.319095 318.86203 
L 75.525582 318.266301 
L 85.722019 317.594761 
L 97.193011 316.587407 
L 106.114893 315.62863 
L 113.76222 314.597204 
L 121.409548 313.32417 
L 127.782321 312.071421 
L 134.155094 310.570136 
L 139.253312 309.15934 
L 144.35153 307.536506 
L 149.449749 305.629421 
L 154.547967 303.474256 
L 159.646185 300.99078 
L 163.469849 298.889831 
L 167.293513 296.56609 
L 171.117177 294.004743 
L 174.940841 291.193632 
L 178.764504 288.138048 
L 181.313614 285.935699 
L 185.137277 282.316054 
L 188.960941 278.347555 
L 192.784605 273.997545 
L 196.608269 269.229923 
L 200.431932 264.009822 
L 204.255596 258.341629 
L 208.07926 252.304776 
L 211.902924 245.855531 
L 217.001142 236.722198 
L 222.09936 227.016064 
L 227.197579 216.814981 
L 232.295797 206.122449 
L 238.66857 192.155898 
L 260.335998 144.114521 
L 266.708771 130.523181 
L 270.532435 122.751693 
L 274.356099 115.400059 
L 278.179762 108.544301 
L 282.003426 102.264953 
L 285.82709 96.378665 
L 289.650754 90.885436 
L 293.474418 85.785267 
L 297.298081 81.078157 
L 301.121745 76.764106 
L 304.945409 72.843115 
L 308.769073 69.315183 
L 311.318182 67.181595 
L 311.318182 67.181595 
" clip-path="url(#p6a96acdf6f)" style="fill: none; stroke: #1f77b4; stroke-opacity: 0; stroke-width: 3; stroke-linecap: round"/>
   </g>
   <g id="line2d_13">
    <path d="M 45 181.8 
L 324 181.8 
" clip-path="url(#p6a96acdf6f)" style="fill: none; stroke-dasharray: 11.1,4.8; stroke-dashoffset: 0; stroke: #333333; stroke-width: 3"/>
   </g>
   <g id="patch_3">
    <path d="M 45 320.4 
L 45 43.2 
" style="fill: none; stroke: #262626; stroke-width: 2.5; stroke-linejoin: miter; stroke-linecap: square"/>
   </g>
   <g id="patch_4">
    <path d="M 45 320.4 
L 324 320.4 
" style="fill: none; stroke: #262626; stroke-width: 2.5; stroke-linejoin: miter; stroke-linecap: square"/>
   </g>
   <g id="text_12">
    <text style="fill: #262626; font: 24px 'Arial', 'DejaVu Sans', 'Liberation Sans', 'Bitstream Vera Sans', sans-serif; text-anchor: start" x="57.681818" y="174.5625" transform="rotate(-0 57.681818 174.5625)">Chance</text>
   </g>
  </g>
 </g>
 <defs>
  <clipPath id="p6a96acdf6f">
   <rect x="45" y="43.2" width="279" height="277.2"/>
  </clipPath>
 </defs>
</svg>
